<svg width="24" height="24" xmlns="http://www.w3.org/2000/svg" fill-rule="evenodd" clip-rule="evenodd"><path d="M24 13.001h-3v10h-18v-10h-3l12-12.001 12 12.001zm-19-2.172v10.172h14v-10.172l-7-7-7 7zm10.332 8.043s-3.953-4.159-4.148-4.354c-.463-.464-1.003-.333-1.285-.051-.398.398-.037 1.019-.037 1.019l-.874.875-2.474-2.474.875-.874s.607.433 1.114-.074c.552-.552.301-1.288 1.525-2.21.726-.547 1.576-.728 2.384-.728 1.591 0 3.019.703 3.019.703-2.581.258-3.607 1.453-2.54 2.52l3.995 4.318c.808.808-.476 2.408-1.554 1.33zm4.668-16.871v5.576l-3-3v-2.576h3z"/></svg>