<svg width="39" height="39" viewBox="0 0 39 39" fill="none" xmlns="http://www.w3.org/2000/svg">
<path d="M1.625 4.0625H5.15424C5.63263 4.0625 5.87183 4.0625 6.06628 4.14924C6.23771 4.22571 6.38415 4.34888 6.48886 4.50467C6.60763 4.68138 6.64862 4.91704 6.73058 5.38835L7.48913 9.75M7.48913 9.75L9.24173 19.8274C9.42091 20.8577 9.5105 21.3728 9.77583 21.7439C10.0095 22.0707 10.3361 22.3195 10.7131 22.458C11.1413 22.6154 11.6618 22.565 12.7026 22.4643L32.0457 20.5923C33.0671 20.4935 33.5777 20.4441 33.9637 20.2134C34.3036 20.0102 34.5755 19.7107 34.745 19.3527C34.9375 18.9464 34.9375 18.4333 34.9375 17.4072V13.6692C34.9375 12.5787 34.9375 12.0334 34.7275 11.612C34.5427 11.2413 34.2473 10.937 33.8822 10.7414C33.4672 10.519 32.9222 10.5028 31.8322 10.4706L7.48913 9.75Z" stroke="black" stroke-width="1.8" stroke-linecap="round" stroke-linejoin="round"/>
<ellipse cx="13.8125" cy="30.875" rx="3.25" ry="3.25" stroke="black" stroke-width="1.8"/>
<ellipse cx="29.25" cy="30.875" rx="3.25" ry="3.25" stroke="black" stroke-width="1.8"/>
</svg>
