<svg width="20" height="22" viewBox="0 0 20 22" fill="none" xmlns="http://www.w3.org/2000/svg">
<path fill-rule="evenodd" clip-rule="evenodd" d="M13 8C11.1334 8 9.56545 6.72147 9.12406 4.99237C9.08341 4.99741 9.04201 5 9 5H1C0.447715 5 0 4.55228 0 4C0 3.44772 0.447715 3 1 3H9C9.04201 3 9.08341 3.00259 9.12406 3.00763C9.56545 1.27853 11.1334 0 13 0C14.8638 0 16.4299 1.27477 16.874 3H19C19.5523 3 20 3.44772 20 4C20 4.55228 19.5523 5 19 5H16.874C16.4299 6.72523 14.8638 8 13 8ZM0 11C0 10.4477 0.447715 10 1 10H2C2.04201 10 2.08342 10.0026 2.12407 10.0076C2.56545 8.27853 4.13342 7 6 7C7.86384 7 9.42994 8.27477 9.87398 10H19C19.5523 10 20 10.4477 20 11C20 11.5523 19.5523 12 19 12H9.87398C9.42994 13.7252 7.86384 15 6 15C4.13342 15 2.56545 13.7215 2.12407 11.9924C2.08342 11.9974 2.04201 12 2 12H1C0.447715 12 0 11.5523 0 11ZM0 18C0 17.4477 0.447715 17 1 17H8C8.04201 17 8.08342 17.0026 8.12407 17.0076C8.56545 15.2785 10.1334 14 12 14C13.8666 14 15.4345 15.2785 15.8759 17.0076C15.9166 17.0026 15.958 17 16 17H19C19.5523 17 20 17.4477 20 18C20 18.5523 19.5523 19 19 19H16C15.958 19 15.9166 18.9974 15.8759 18.9924C15.4345 20.7215 13.8666 22 12 22C10.1334 22 8.56545 20.7215 8.12407 18.9924C8.08342 18.9974 8.04201 19 8 19H1C0.447715 19 0 18.5523 0 18ZM15 4C15 5.10457 14.1046 6 13 6C11.8954 6 11 5.10457 11 4C11 2.89543 11.8954 2 13 2C14.1046 2 15 2.89543 15 4ZM14 18C14 19.1046 13.1046 20 12 20C10.8954 20 10 19.1046 10 18C10 16.8954 10.8954 16 12 16C13.1046 16 14 16.8954 14 18ZM8 11C8 12.1046 7.10457 13 6 13C4.89543 13 4 12.1046 4 11C4 9.89543 4.89543 9 6 9C7.10457 9 8 9.89543 8 11Z" fill="black"/>
</svg>
