<svg width="35" height="35" viewBox="0 0 35 35" fill="none" xmlns="http://www.w3.org/2000/svg">
<path d="M35 5.565L15.0325 25.55L7.6125 18.13L10.08 15.6625L15.0325 20.615L32.5325 3.115L35 5.565ZM31.1325 14.385C31.36 15.3825 31.5 16.4325 31.5 17.5C31.5 25.235 25.235 31.5 17.5 31.5C9.765 31.5 3.5 25.235 3.5 17.5C3.5 9.765 9.765 3.5 17.5 3.5C20.265 3.5 22.82 4.305 24.99 5.6875L27.51 3.1675C24.675 1.1725 21.2275 0 17.5 0C7.84 0 0 7.84 0 17.5C0 27.16 7.84 35 17.5 35C27.16 35 35 27.16 35 17.5C35 15.4175 34.615 13.4225 33.95 11.5675L31.1325 14.385Z" fill="#42DA2A"/>
</svg>
