<svg width="27" height="32" viewBox="0 0 27 32" fill="none" xmlns="http://www.w3.org/2000/svg">
<path d="M13.5 31.75C15.2875 31.75 16.75 30.2875 16.75 28.5H10.25C10.25 30.2875 11.7125 31.75 13.5 31.75ZM23.25 22V13.875C23.25 8.88625 20.6012 4.71 15.9375 3.605V2.5C15.9375 1.15125 14.8488 0.0625 13.5 0.0625C12.1512 0.0625 11.0625 1.15125 11.0625 2.5V3.605C6.415 4.71 3.75 8.87 3.75 13.875V22L0.5 25.25V26.875H26.5V25.25L23.25 22ZM20 23.625H7V13.875C7 9.845 9.45375 6.5625 13.5 6.5625C17.5462 6.5625 20 9.845 20 13.875V23.625Z" fill="black"/>
</svg>
