<svg width="24" height="16" viewBox="0 0 24 16" fill="none" xmlns="http://www.w3.org/2000/svg">
<path d="M19.5 7C17.015 7 15 9.015 15 11.5C15 13.985 17.015 16 19.5 16C21.985 16 24 13.985 24 11.5C24 9.015 21.985 7 19.5 7ZM19.031 13.484L17.343 11.847L18.039 11.15L19.03 12.09L21.146 9.921L21.842 10.617L19.031 13.484ZM4 11H9V12H4V11ZM12 10H4V9H12V10ZM13.502 14H2.5C2.224 14 2 13.776 2 13.5V7H14.82C16.004 5.77 17.662 5 19.5 5C20.386 5 21.229 5.179 22 5.501V2C22 0.896 21.104 0 20 0H2C0.896 0 0 0.896 0 2V14C0 15.104 0.896 16 2 16H14.82C14.267 15.424 13.814 14.749 13.502 14ZM2 2.5C2 2.224 2.224 2 2.5 2H19.5C19.776 2 20 2.224 20 2.5V4H2V2.5Z" fill="#9E9E9E"/>
</svg>
